{
  "asset": {
    "generator": "Khronos glTF Blender I/O v4.0.44",
    "version": "2.0"
  },
  "scene": 0,
  "scenes": [
    {
      "name": "Scene",
      "nodes": [
        0,
        1,
        2
      ]
    }
  ],
  "nodes": [
    {
      "mesh": 0,
      "name": "Sfera",
      "rotation": [
        0.2844517230987549,
        -0.3716074824333191,
        0.8754521012306213,
        0.12074262648820877
      ],
      "translation": [
        -0.1287243664264679,
        14.244797706604004,
        0.38060247898101807
      ]
    },
    {
      "mesh": 1,
      "name": "Piano",
      "scale": [
        83.24000549316406,
        1,
        80
      ],
      "translation": [
        -0.9084977507591248,
        8.777586936950684,
        0.8677182197570801
      ]
    },
    {
      "mesh": 2,
      "name": "Cilindro",
      "translation": [
        -0.731780469417572,
        11.065053939819336,
        -0.3320523500442505
      ]
    }
  ],
  "animations": [
    {
      "channels": [
        {
          "sampler": 0,
          "target": {
            "node": 1,
            "path": "translation"
          }
        }
      ],
      "name": "PianoAction.001",
      "samplers": [
        {
          "input": 12,
          "interpolation": "LINEAR",
          "output": 13
        }
      ]
    }
  ],
  "materials": [
    {
      "doubleSided": true,
      "name": "Materiale.001",
      "pbrMetallicRoughness": {
        "baseColorFactor": [
          0.44082528352737427,
          0.7999992966651917,
          0.4613620638847351,
          1
        ],
        "roughnessFactor": 0.30263155698776245
      }
    },
    {
      "doubleSided": true,
      "name": "Materiale",
      "pbrMetallicRoughness": {
        "baseColorFactor": [
          0.0050603654235601425,
          0.1902090162038803,
          0.30695295333862305,
          1
        ],
        "roughnessFactor": 0
      }
    },
    {
      "doubleSided": true,
      "name": "Materiale.002",
      "pbrMetallicRoughness": {
        "baseColorFactor": [
          0.18978892266750336,
          0.4982737600803375,
          0.7999992966651917,
          1
        ],
        "roughnessFactor": 0
      }
    }
  ],
  "meshes": [
    {
      "name": "Sfera",
      "primitives": [
        {
          "attributes": {
            "POSITION": 0,
            "NORMAL": 1,
            "TEXCOORD_0": 2
          },
          "indices": 3,
          "material": 0
        }
      ]
    },
    {
      "name": "Piano.001",
      "primitives": [
        {
          "attributes": {
            "POSITION": 4,
            "NORMAL": 5,
            "TEXCOORD_0": 6
          },
          "indices": 7,
          "material": 1
        }
      ]
    },
    {
      "name": "Cilindro.001",
      "primitives": [
        {
          "attributes": {
            "POSITION": 8,
            "NORMAL": 9,
            "TEXCOORD_0": 10
          },
          "indices": 11,
          "material": 2
        }
      ]
    }
  ],
  "accessors": [
    {
      "bufferView": 0,
      "componentType": 5126,
      "count": 126976,
      "max": [
        0.9872310161590576,
        0.9975767135620117,
        0.9872307181358337
      ],
      "min": [
        -0.9872305393218994,
        -0.9975767135620117,
        -0.9872310161590576
      ],
      "type": "VEC3"
    },
    {
      "bufferView": 1,
      "componentType": 5126,
      "count": 126976,
      "type": "VEC3"
    },
    {
      "bufferView": 2,
      "componentType": 5126,
      "count": 126976,
      "type": "VEC2"
    },
    {
      "bufferView": 3,
      "componentType": 5125,
      "count": 190464,
      "type": "SCALAR"
    },
    {
      "bufferView": 4,
      "componentType": 5126,
      "count": 4,
      "max": [
        1,
        0,
        1
      ],
      "min": [
        -1,
        0,
        -1
      ],
      "type": "VEC3"
    },
    {
      "bufferView": 5,
      "componentType": 5126,
      "count": 4,
      "type": "VEC3"
    },
    {
      "bufferView": 6,
      "componentType": 5126,
      "count": 4,
      "type": "VEC2"
    },
    {
      "bufferView": 7,
      "componentType": 5123,
      "count": 6,
      "type": "SCALAR"
    },
    {
      "bufferView": 8,
      "componentType": 5126,
      "count": 192,
      "max": [
        2.2592904567718506,
        1.9771045446395874,
        2.3520255088806152
      ],
      "min": [
        -1.3494040966033936,
        -0.8137037754058838,
        -1.4135950803756714
      ],
      "type": "VEC3"
    },
    {
      "bufferView": 9,
      "componentType": 5126,
      "count": 192,
      "type": "VEC3"
    },
    {
      "bufferView": 10,
      "componentType": 5126,
      "count": 192,
      "type": "VEC2"
    },
    {
      "bufferView": 11,
      "componentType": 5123,
      "count": 372,
      "type": "SCALAR"
    },
    {
      "bufferView": 12,
      "componentType": 5126,
      "count": 243,
      "max": [
        10.125
      ],
      "min": [
        0.041666666666666664
      ],
      "type": "SCALAR"
    },
    {
      "bufferView": 13,
      "componentType": 5126,
      "count": 243,
      "type": "VEC3"
    }
  ],
  "bufferViews": [
    {
      "buffer": 0,
      "byteLength": 1523712,
      "byteOffset": 0,
      "target": 34962
    },
    {
      "buffer": 0,
      "byteLength": 1523712,
      "byteOffset": 1523712,
      "target": 34962
    },
    {
      "buffer": 0,
      "byteLength": 1015808,
      "byteOffset": 3047424,
      "target": 34962
    },
    {
      "buffer": 0,
      "byteLength": 761856,
      "byteOffset": 4063232,
      "target": 34963
    },
    {
      "buffer": 0,
      "byteLength": 48,
      "byteOffset": 4825088,
      "target": 34962
    },
    {
      "buffer": 0,
      "byteLength": 48,
      "byteOffset": 4825136,
      "target": 34962
    },
    {
      "buffer": 0,
      "byteLength": 32,
      "byteOffset": 4825184,
      "target": 34962
    },
    {
      "buffer": 0,
      "byteLength": 12,
      "byteOffset": 4825216,
      "target": 34963
    },
    {
      "buffer": 0,
      "byteLength": 2304,
      "byteOffset": 4825228,
      "target": 34962
    },
    {
      "buffer": 0,
      "byteLength": 2304,
      "byteOffset": 4827532,
      "target": 34962
    },
    {
      "buffer": 0,
      "byteLength": 1536,
      "byteOffset": 4829836,
      "target": 34962
    },
    {
      "buffer": 0,
      "byteLength": 744,
      "byteOffset": 4831372,
      "target": 34963
    },
    {
      "buffer": 0,
      "byteLength": 972,
      "byteOffset": 4832116
    },
    {
      "buffer": 0,
      "byteLength": 2916,
      "byteOffset": 4833088
    }
  ],
  "buffers": [
    {
      "uri": "ocean1_data.bin",
      "byteLength": 4836004
    }
  ]
}